# Blender 4.3.0 Alpha
# www.blender.org
mtllib Chair.mtl
o Cube
v -0.337492 0.691247 0.337492
v -0.337492 0.783504 0.337492
v -0.337492 0.691247 -0.337492
v -0.337492 0.783504 -0.337492
v 0.337492 0.691247 0.337492
v 0.337492 0.783504 0.337492
v 0.337492 0.691247 -0.337492
v 0.337492 0.783504 -0.337492
v 0.440478 0.013858 -0.359902
v 0.351190 0.709272 -0.302346
v 0.396995 0.002329 -0.409714
v 0.306257 0.707235 -0.353087
v 0.491438 0.017426 -0.402997
v 0.400429 0.724102 -0.346544
v 0.447956 0.005898 -0.452808
v 0.355495 0.722065 -0.397285
v -0.401948 0.009878 -0.374613
v -0.316939 0.705122 -0.320448
v -0.408410 0.009878 -0.441419
v -0.323401 0.714769 -0.387253
v -0.468294 0.009878 -0.366543
v -0.383285 0.716568 -0.312378
v -0.474756 0.009878 -0.433349
v -0.389746 0.726215 -0.379183
v -0.453272 1.652196 -0.355834
v -0.462979 1.652196 -0.417551
v -0.528248 1.648817 -0.410492
v -0.518494 1.648777 -0.348850
v -0.424967 1.288046 -0.338793
v -0.470920 1.290192 -0.333578
v -0.463601 1.629026 -0.353471
v -0.509211 1.626635 -0.348587
v -0.494474 1.288046 -0.000000
v -0.540427 1.290192 -0.000000
v -0.533108 1.629026 -0.000000
v -0.578718 1.626635 -0.000000
v -0.519751 1.290192 -0.166789
v -0.558042 1.626635 -0.174293
v -0.473798 1.288046 -0.169397
v -0.512432 1.629026 -0.176736
v -0.343358 0.889248 -0.338793
v -0.378855 0.891394 -0.333578
v -0.397049 0.889248 0.000000
v -0.432547 0.891394 0.000000
v -0.416575 0.891394 -0.166789
v -0.381078 0.889248 -0.169397
v -0.350794 0.934807 -0.333567
v -0.386291 0.936952 -0.328351
v -0.404486 0.934807 0.000000
v -0.439983 0.936952 -0.000000
v -0.424011 0.936952 -0.161563
v -0.388514 0.934807 -0.164170
v 0.440478 0.013858 0.359902
v 0.351190 0.709272 0.302346
v 0.396995 0.002329 0.409713
v 0.306257 0.707235 0.353087
v 0.491438 0.017426 0.402997
v 0.400429 0.724102 0.346544
v 0.447956 0.005898 0.452808
v 0.355495 0.722065 0.397285
v -0.401948 0.009878 0.374613
v -0.316939 0.705122 0.320448
v -0.408410 0.009878 0.441419
v -0.323401 0.714769 0.387253
v -0.468294 0.009878 0.366543
v -0.383285 0.716568 0.312377
v -0.474755 0.009878 0.433349
v -0.389746 0.726215 0.379183
v -0.453272 1.652196 0.355834
v -0.462979 1.652196 0.417551
v -0.528248 1.648817 0.410492
v -0.518494 1.648777 0.348850
v -0.424967 1.288046 0.338793
v -0.470920 1.290192 0.333578
v -0.463601 1.629026 0.353471
v -0.509211 1.626635 0.348587
v -0.519751 1.290192 0.166789
v -0.558042 1.626635 0.174293
v -0.473798 1.288046 0.169397
v -0.512432 1.629026 0.176736
v -0.343358 0.889248 0.338793
v -0.378855 0.891394 0.333578
v -0.416575 0.891394 0.166789
v -0.381078 0.889248 0.169397
v -0.350794 0.934807 0.333567
v -0.386291 0.936952 0.328351
v -0.424011 0.936952 0.161563
v -0.388514 0.934807 0.164170
v -0.388911 0.403534 -0.405683
v -0.382835 0.448867 -0.398879
v 0.388911 0.403534 -0.405683
v 0.382835 0.448867 -0.398879
v -0.382835 0.448298 -0.371160
v -0.388911 0.402965 -0.377964
v 0.388911 0.402965 -0.377964
v 0.382835 0.448298 -0.371160
v -0.388911 0.403534 0.405683
v -0.382835 0.448867 0.398879
v 0.388911 0.403534 0.405683
v 0.382835 0.448867 0.398879
v -0.382835 0.448298 0.371160
v -0.388911 0.402965 0.377964
v 0.388911 0.402965 0.377964
v 0.382835 0.448298 0.371160
vn -1.0000 -0.0000 -0.0000
vn -0.0000 -0.0000 -1.0000
vn 1.0000 -0.0000 -0.0000
vn -0.0000 -0.0000 1.0000
vn -0.0000 -1.0000 -0.0000
vn -0.0000 1.0000 -0.0000
vn -0.7327 -0.1484 0.6642
vn -0.6541 -0.0247 -0.7560
vn 0.7329 0.1468 -0.6643
vn 0.6543 0.0227 0.7559
vn 0.1504 -0.9839 0.0964
vn -0.1832 0.9753 0.1231
vn 0.6756 -0.7339 -0.0709
vn 0.6489 -0.7578 -0.0681
vn 0.9883 -0.1120 -0.1037
vn -0.1127 0.0889 -0.9896
vn -0.9885 0.1102 0.1036
vn 0.1126 -0.0901 0.9895
vn -0.9835 -0.1410 0.1135
vn -0.0511 0.9987 0.0084
vn 0.9836 0.1401 -0.1132
vn 0.1168 0.0548 0.9916
vn -0.1171 -0.0504 -0.9918
vn -0.9735 -0.1161 -0.1971
vn -0.9934 -0.1144 -0.0000
vn -0.0472 -0.9988 -0.0091
vn -0.0474 -0.9988 -0.0105
vn -0.0468 -0.9989 -0.0000
vn 0.9741 0.1154 0.1944
vn 0.9741 0.1154 0.1943
vn 0.9935 0.1138 -0.0000
vn -0.0531 0.9985 -0.0112
vn -0.0529 0.9985 -0.0098
vn -0.0525 0.9986 -0.0000
vn -0.0535 0.9985 -0.0149
vn 0.9558 0.1170 0.2697
vn -0.0478 -0.9988 -0.0139
vn -0.9547 -0.1178 -0.2734
vn 0.0611 0.9981 0.0092
vn 0.0605 0.9982 -0.0000
vn 0.0613 0.9981 0.0104
vn 0.0618 0.9980 0.0139
vn -0.0611 -0.9981 -0.0093
vn -0.0613 -0.9981 -0.0105
vn -0.0605 -0.9982 -0.0000
vn -0.0618 -0.9980 -0.0139
vn -0.9674 -0.1332 -0.2154
vn -0.9766 -0.1435 -0.1603
vn -0.9780 -0.1454 -0.1498
vn -0.9878 -0.1558 -0.0000
vn 0.9762 0.1432 0.1628
vn 0.9667 0.1327 0.2186
vn 0.9777 0.1451 0.1521
vn 0.9878 0.1557 -0.0000
vn -0.7327 -0.1484 -0.6642
vn -0.6541 -0.0247 0.7560
vn 0.7329 0.1468 0.6643
vn 0.6543 0.0227 -0.7559
vn 0.1504 -0.9839 -0.0964
vn -0.1832 0.9753 -0.1231
vn 0.6756 -0.7339 0.0709
vn 0.9883 -0.1120 0.1037
vn 0.6489 -0.7578 0.0681
vn -0.1127 0.0889 0.9896
vn -0.9885 0.1102 -0.1036
vn 0.1126 -0.0901 -0.9895
vn -0.9835 -0.1410 -0.1135
vn -0.0511 0.9987 -0.0084
vn 0.9836 0.1401 0.1132
vn 0.1168 0.0548 -0.9916
vn -0.1171 -0.0504 0.9918
vn -0.9735 -0.1161 0.1971
vn -0.0472 -0.9988 0.0091
vn -0.0474 -0.9988 0.0105
vn 0.9741 0.1154 -0.1944
vn 0.9741 0.1154 -0.1943
vn -0.0531 0.9985 0.0112
vn -0.0529 0.9985 0.0098
vn -0.0535 0.9985 0.0149
vn 0.9558 0.1170 -0.2697
vn -0.0478 -0.9988 0.0139
vn -0.9547 -0.1178 0.2734
vn 0.0611 0.9981 -0.0092
vn 0.0613 0.9981 -0.0104
vn 0.0618 0.9980 -0.0139
vn -0.0611 -0.9981 0.0093
vn -0.0613 -0.9981 0.0105
vn -0.0618 -0.9980 0.0139
vn -0.9674 -0.1332 0.2154
vn -0.9780 -0.1454 0.1498
vn -0.9766 -0.1435 0.1603
vn 0.9762 0.1432 -0.1628
vn 0.9777 0.1451 -0.1521
vn 0.9667 0.1327 -0.2186
vn -0.0000 -0.1484 0.9889
vn -0.0000 0.1484 -0.9889
vn -0.0000 -0.9998 -0.0205
vn -0.0000 0.9998 0.0205
vn -0.0000 -0.1484 -0.9889
vn -0.0000 0.1484 0.9889
vn -0.0000 -0.9998 0.0205
vn -0.0000 0.9998 -0.0205
vt 0.797104 0.309568
vt 0.754868 0.309568
vt 0.754868 0.000554
vt 0.797104 0.000554
vt 0.823030 0.641854
vt 0.780794 0.641854
vt 0.780794 0.332840
vt 0.823030 0.332840
vt 0.798213 0.000554
vt 0.840449 0.000554
vt 0.840449 0.309568
vt 0.798213 0.309568
vt 0.824139 0.332840
vt 0.866375 0.332840
vt 0.866375 0.641854
vt 0.824139 0.641854
vt 0.967540 0.970180
vt 0.658526 0.970180
vt 0.658526 0.661166
vt 0.967540 0.661166
vt 0.652048 0.999446
vt 0.343034 0.999446
vt 0.343034 0.690432
vt 0.652048 0.690432
vt 0.218399 0.439479
vt 0.219045 0.761539
vt 0.188003 0.761390
vt 0.188003 0.434983
vt 0.405564 0.360633
vt 0.406061 0.687039
vt 0.375102 0.689323
vt 0.375102 0.357758
vt 0.657418 0.000554
vt 0.657418 0.332120
vt 0.626375 0.332197
vt 0.627011 0.004980
vt 0.689488 0.332840
vt 0.689488 0.660057
vt 0.658527 0.657814
vt 0.659030 0.335754
vt 0.288836 0.690360
vt 0.319424 0.691113
vt 0.319424 0.721840
vt 0.288836 0.721087
vt 0.093732 0.753026
vt 0.093732 0.784068
vt 0.062689 0.784068
vt 0.062689 0.753026
vt 0.254301 0.033405
vt 0.284933 0.030989
vt 0.282126 0.356965
vt 0.251145 0.355006
vt 0.254514 0.361367
vt 0.284933 0.358074
vt 0.284933 0.689251
vt 0.253948 0.687355
vt 0.423121 0.357758
vt 0.453735 0.360396
vt 0.454116 0.687199
vt 0.423121 0.688935
vt 0.722668 0.332840
vt 0.753083 0.336177
vt 0.753655 0.657794
vt 0.722668 0.659644
vt 0.251145 0.002970
vt 0.281777 0.000554
vt 0.188003 0.006530
vt 0.218465 0.000554
vt 0.218465 0.432117
vt 0.189948 0.433874
vt 0.288867 0.722949
vt 0.317403 0.724381
vt 0.317403 0.754452
vt 0.288836 0.753044
vt 0.062689 0.000554
vt 0.093162 0.006475
vt 0.091241 0.440586
vt 0.062689 0.438903
vt 0.031985 0.009926
vt 0.061580 0.000554
vt 0.061580 0.438902
vt 0.031621 0.441488
vt 0.126284 0.000554
vt 0.155818 0.010117
vt 0.155818 0.437466
vt 0.125853 0.434670
vt 0.622133 0.575899
vt 0.467111 0.572488
vt 0.468182 0.495554
vt 0.623204 0.495554
vt 0.106080 0.673164
vt 0.085019 0.674358
vt 0.094475 0.596806
vt 0.115535 0.596806
vt 0.467097 0.087795
vt 0.624200 0.084458
vt 0.625266 0.165914
vt 0.468163 0.165914
vt 0.148177 0.519495
vt 0.169086 0.520613
vt 0.178539 0.600407
vt 0.157630 0.600407
vt 0.125853 0.438575
vt 0.146762 0.440811
vt 0.464526 0.007126
vt 0.621635 0.000554
vt 0.083749 0.749529
vt 0.062689 0.751917
vt 0.619554 0.658725
vt 0.464526 0.652009
vt 0.034072 0.521375
vt 0.041370 0.597733
vt 0.025090 0.597733
vt 0.017791 0.520181
vt 0.016835 0.445010
vt 0.000554 0.442622
vt 0.875075 0.227239
vt 0.858795 0.228433
vt 0.866093 0.153273
vt 0.882374 0.153273
vt 0.857838 0.303604
vt 0.841558 0.305991
vt 0.225113 0.749571
vt 0.227724 0.670164
vt 0.248859 0.667782
vt 0.246247 0.747190
vt 0.228903 0.592277
vt 0.250037 0.592277
vt 0.757373 0.411082
vt 0.754764 0.332840
vt 0.775899 0.335222
vt 0.778508 0.413464
vt 0.758552 0.487780
vt 0.779685 0.487780
vt 0.723363 0.005050
vt 0.753759 0.000554
vt 0.753759 0.326961
vt 0.722717 0.327110
vt 0.343531 0.360633
vt 0.373993 0.357758
vt 0.373993 0.689323
vt 0.343034 0.687039
vt 0.626375 0.333305
vt 0.656781 0.337731
vt 0.657418 0.664947
vt 0.626375 0.664871
vt 0.690597 0.332840
vt 0.721055 0.335754
vt 0.721559 0.657814
vt 0.690597 0.660057
vt 0.284537 0.690360
vt 0.284537 0.721087
vt 0.253948 0.721840
vt 0.253948 0.691113
vt 0.000554 0.753953
vt 0.031597 0.753953
vt 0.031597 0.784996
vt 0.000554 0.784996
vt 0.316674 0.033405
vt 0.319830 0.355006
vt 0.288849 0.356965
vt 0.286042 0.030989
vt 0.688946 0.003847
vt 0.689511 0.329835
vt 0.658527 0.331731
vt 0.658527 0.000554
vt 0.319830 0.358074
vt 0.319830 0.689251
vt 0.288836 0.687515
vt 0.289216 0.360712
vt 0.721608 0.000554
vt 0.721608 0.327358
vt 0.690620 0.325508
vt 0.691193 0.003891
vt 0.289198 0.000554
vt 0.319830 0.002970
vt 0.250036 0.006530
vt 0.248091 0.433874
vt 0.219574 0.432117
vt 0.219574 0.000554
vt 0.253948 0.754422
vt 0.253948 0.724327
vt 0.282517 0.722949
vt 0.282485 0.753020
vt 0.124744 0.000554
vt 0.124744 0.438902
vt 0.096192 0.440586
vt 0.094271 0.006475
vt 0.030512 0.009951
vt 0.030512 0.441514
vt 0.000554 0.438902
vt 0.000925 0.000554
vt 0.186894 0.000554
vt 0.186894 0.434670
vt 0.156926 0.437436
vt 0.157351 0.010087
vt 0.622133 0.415208
vt 0.467111 0.418619
vt 0.106080 0.520447
vt 0.085019 0.519253
vt 0.467097 0.244034
vt 0.624200 0.247370
vt 0.148177 0.681320
vt 0.169086 0.680202
vt 0.125853 0.762240
vt 0.146762 0.760004
vt 0.464526 0.324702
vt 0.621635 0.331274
vt 0.083749 0.444082
vt 0.062689 0.441695
vt 0.619554 0.332383
vt 0.464526 0.339098
vt 0.034072 0.674092
vt 0.017791 0.675286
vt 0.016835 0.750457
vt 0.000554 0.752845
vt 0.875075 0.079307
vt 0.858795 0.078113
vt 0.857839 0.002942
vt 0.841558 0.000554
vt 0.225113 0.434983
vt 0.246247 0.437365
vt 0.248859 0.516773
vt 0.227724 0.514391
vt 0.757373 0.564478
vt 0.778508 0.562096
vt 0.775899 0.640338
vt 0.754764 0.642720
vt 0.320939 0.356649
vt 0.320939 0.000554
vt 0.341925 0.003336
vt 0.341925 0.353867
vt 0.364021 0.356649
vt 0.343034 0.353867
vt 0.343034 0.003336
vt 0.364021 0.000554
vt 0.450724 0.351085
vt 0.450724 0.000554
vt 0.463417 0.000554
vt 0.463417 0.351085
vt 0.409320 0.356649
vt 0.409320 0.000554
vt 0.422013 0.000554
vt 0.422012 0.356649
vt 0.386116 0.356649
vt 0.365129 0.353867
vt 0.365129 0.003336
vt 0.386116 0.000554
vt 0.387225 0.356649
vt 0.387225 0.000554
vt 0.408211 0.003336
vt 0.408211 0.353867
vt 0.449615 0.351085
vt 0.436923 0.351085
vt 0.436923 0.000554
vt 0.449615 0.000554
vt 0.423121 0.000554
vt 0.435814 0.000554
vt 0.435814 0.356649
vt 0.423121 0.356649
s 0
f 1/1/1 2/2/1 4/3/1 3/4/1
f 3/5/2 4/6/2 8/7/2 7/8/2
f 7/9/3 8/10/3 6/11/3 5/12/3
f 5/13/4 6/14/4 2/15/4 1/16/4
f 3/17/5 7/18/5 5/19/5 1/20/5
f 8/21/6 4/22/6 2/23/6 6/24/6
s 1
f 9/25/7 10/26/7 12/27/7 11/28/7
f 11/29/8 12/30/8 16/31/8 15/32/8
f 15/33/9 16/34/9 14/35/9 13/36/9
f 13/37/10 14/38/10 10/39/10 9/40/10
f 11/41/11 15/42/11 13/43/11 9/44/11
f 16/45/12 12/46/12 10/47/12 14/48/12
f 17/49/13 19/50/14 20/51/15 18/52/15
f 19/53/16 23/54/16 24/55/16 20/56/16
f 23/57/17 21/58/17 22/59/17 24/60/17
f 21/61/18 17/62/18 18/63/18 22/64/18
f 19/50/14 17/49/13 21/65/5 23/66/5
f 24/67/19 22/68/19 28/69/19 27/70/19
f 27/71/20 28/72/20 25/73/20 26/74/20
f 18/75/21 20/76/21 26/77/21 25/78/21
f 22/79/22 18/80/22 25/81/22 28/82/22
f 20/83/23 24/84/23 27/85/23 26/86/23
f 38/87/24 37/88/24 34/89/25 36/90/25
f 37/91/26 39/92/27 33/93/28 34/94/28
f 39/95/29 40/96/30 35/97/31 33/98/31
f 40/99/32 38/100/33 36/101/34 35/102/34
f 31/103/35 32/104/35 38/100/33 40/99/32
f 29/105/36 31/106/36 40/96/30 39/95/29
f 30/107/37 29/108/37 39/92/27 37/91/26
f 32/109/38 30/110/38 37/88/24 38/87/24
f 45/111/39 44/112/40 43/113/40 46/114/41
f 42/115/42 45/111/39 46/114/41 41/116/42
f 51/117/43 52/118/44 49/119/45 50/120/45
f 48/121/46 47/122/46 52/118/44 51/117/43
f 41/123/47 46/124/48 52/125/49 47/126/47
f 46/124/48 43/127/50 49/128/50 52/125/49
f 45/129/51 42/130/52 48/131/52 51/132/53
f 44/133/54 45/129/51 51/132/53 50/134/54
f 53/135/55 55/136/55 56/137/55 54/138/55
f 55/139/56 59/140/56 60/141/56 56/142/56
f 59/143/57 57/144/57 58/145/57 60/146/57
f 57/147/58 53/148/58 54/149/58 58/150/58
f 55/151/59 53/152/59 57/153/59 59/154/59
f 60/155/60 58/156/60 54/157/60 56/158/60
f 61/159/61 62/160/62 64/161/62 63/162/63
f 63/163/64 64/164/64 68/165/64 67/166/64
f 67/167/65 68/168/65 66/169/65 65/170/65
f 65/171/66 66/172/66 62/173/66 61/174/66
f 63/162/63 67/175/5 65/176/5 61/159/61
f 68/177/67 71/178/67 72/179/67 66/180/67
f 71/181/68 70/182/68 69/183/68 72/184/68
f 62/185/69 69/186/69 70/187/69 64/188/69
f 66/189/70 72/190/70 69/191/70 62/192/70
f 64/193/71 70/194/71 71/195/71 68/196/71
f 78/197/72 36/90/25 34/89/25 77/198/72
f 77/199/73 34/94/28 33/93/28 79/200/74
f 79/201/75 33/98/31 35/97/31 80/202/76
f 80/203/77 35/102/34 36/101/34 78/204/78
f 75/205/79 80/203/77 78/204/78 76/206/79
f 73/207/80 79/201/75 80/202/76 75/208/80
f 74/209/81 77/199/73 79/200/74 73/210/81
f 76/211/82 78/197/72 77/198/72 74/212/82
f 83/213/83 84/214/84 43/113/40 44/112/40
f 82/215/85 81/216/85 84/214/84 83/213/83
f 87/217/86 50/120/45 49/119/45 88/218/87
f 86/219/88 87/217/86 88/218/87 85/220/88
f 81/221/89 85/222/89 88/223/90 84/224/91
f 84/224/91 88/223/90 49/128/50 43/127/50
f 83/225/92 87/226/93 86/227/94 82/228/94
f 44/133/54 50/134/54 87/226/93 83/225/92
s 0
f 89/229/95 91/230/95 92/231/95 90/232/95
f 94/233/96 93/234/96 96/235/96 95/236/96
f 90/237/97 92/238/97 96/239/97 93/240/97
f 91/241/98 89/242/98 94/243/98 95/244/98
f 97/245/99 98/246/99 100/247/99 99/248/99
f 102/249/100 103/250/100 104/251/100 101/252/100
f 98/253/101 101/254/101 104/255/101 100/256/101
f 99/257/102 103/258/102 102/259/102 97/260/102
