# Blender 4.3.0 Alpha
# www.blender.org
mtllib Door_Frame.mtl
o Plane
v 0.054915 4.000000 1.000000
v 0.054915 0.000000 1.000000
v 0.054915 4.000000 -1.000000
v 0.054915 -0.000000 -1.000000
v 0.054915 4.000000 -0.777509
v 0.054915 -0.000000 -0.777509
v 0.054915 4.000000 0.780425
v 0.054915 0.000000 0.780425
v 0.054915 3.803307 1.000000
v 0.054915 3.803307 -1.000000
v 0.054915 3.803307 -0.777509
v 0.054915 3.803307 0.780425
v -0.328681 4.000000 1.000000
v -0.328681 0.000000 1.000000
v -0.328681 4.000000 -1.000000
v -0.328681 -0.000000 -1.000000
v -0.328681 4.000000 -0.777509
v -0.328681 -0.000000 -0.777509
v -0.328681 4.000000 0.780425
v -0.328681 0.000000 0.780425
v -0.328681 3.803307 1.000000
v -0.328681 3.803307 -1.000000
v -0.328681 3.803307 -0.777509
v -0.328681 3.803307 0.780425
vn 1.0000 -0.0000 -0.0000
vn -0.0000 -0.0000 -1.0000
vn -0.0000 -0.0000 1.0000
vn -0.0000 1.0000 -0.0000
vn -1.0000 -0.0000 -0.0000
vn -0.0000 -1.0000 -0.0000
vt 0.900381 0.950737
vt 0.900381 0.000100
vt 0.999900 0.000100
vt 0.999900 0.950737
vt 0.082318 0.909978
vt 0.013755 0.909978
vt 0.013755 0.070336
vt 0.082318 0.070336
vt 0.000100 0.950737
vt 0.000100 0.000100
vt 0.109865 0.000100
vt 0.109865 0.950737
vt 0.000100 0.999900
vt 0.109865 0.999900
vt 0.888677 0.950737
vt 0.888677 0.999900
vt 0.999900 0.999900
vt 0.909655 0.064722
vt 0.985153 0.064722
vt 0.985153 0.935278
vt 0.909655 0.935278
vt 0.797850 0.961219
vt 0.797850 0.993521
vt 0.167747 0.993521
vt 0.167747 0.961219
vt 0.886657 0.961219
vt 0.886657 0.993521
vt 0.006833 0.020734
vt 0.082724 0.020734
vt 0.082724 0.949819
vt 0.006833 0.949819
vt 0.082724 0.997868
vt 0.006833 0.997868
vt 0.983484 0.999069
vt 0.907400 0.999069
vt 0.907400 0.951664
vt 0.983484 0.951664
vt 0.077761 0.993521
vt 0.077761 0.961219
vt 0.907400 0.035035
vt 0.983483 0.035035
vt 0.853466 0.958779
vt 0.853466 0.996142
vt 0.178515 0.996142
vt 0.178515 0.958779
s 1
usemtl Material.003
f 11/1/1 6/2/1 4/3/1 10/4/1
f 24/5/2 12/6/2 8/7/2 20/8/2
f 9/9/1 2/10/1 8/11/1 12/12/1
f 1/13/1 9/9/1 12/12/1 7/14/1
f 7/14/1 12/12/1 11/15/1 5/16/1
f 5/16/1 11/15/1 10/4/1 3/17/1
f 18/18/3 6/19/3 11/20/3 23/21/3
f 19/22/4 7/23/4 5/24/4 17/25/4
f 13/26/4 1/27/4 7/23/4 19/22/4
f 14/28/3 2/29/3 9/30/3 21/31/3
f 21/31/3 9/30/3 1/32/3 13/33/3
f 15/34/2 3/35/2 10/36/2 22/37/2
f 17/25/4 5/24/4 3/38/4 15/39/4
f 23/1/5 22/4/5 16/3/5 18/2/5
f 21/9/5 24/12/5 20/11/5 14/10/5
f 13/13/5 19/14/5 24/12/5 21/9/5
f 19/14/5 17/16/5 23/15/5 24/12/5
f 17/16/5 15/17/5 22/4/5 23/15/5
f 22/37/2 10/36/2 4/40/2 16/41/2
f 23/42/6 11/43/6 12/44/6 24/45/6
