# Blender 4.3.0 Alpha
# www.blender.org
mtllib Door.mtl
o Plane.001
v -0.090415 0.000000 0.780425
v -0.090415 -0.000000 -0.777509
v -0.090415 3.803307 -0.777509
v -0.090415 3.803307 0.780425
v -0.183351 0.000000 0.780425
v -0.183351 -0.000000 -0.777509
v -0.183351 3.803307 -0.777509
v -0.183351 3.803307 0.780425
vn 1.0000 -0.0000 -0.0000
vn -1.0000 -0.0000 -0.0000
vn -0.0000 -0.0000 -1.0000
vn -0.0000 1.0000 -0.0000
vn -0.0000 -0.0000 1.0000
vn -0.0000 -1.0000 -0.0000
vt 0.513733 0.237684
vt 0.513733 0.000025
vt 0.611085 0.000025
vt 0.611085 0.237684
s 1
usemtl Material.001
f 4/1/1 1/2/1 2/3/1 3/4/1
f 8/1/2 7/4/2 6/3/2 5/2/2
f 3/4/3 2/3/3 6/3/3 7/4/3
f 4/1/4 3/4/4 7/4/4 8/1/4
f 4/1/5 8/1/5 5/2/5 1/2/5
f 2/3/6 1/2/6 5/2/6 6/3/6
