# Blender 4.3.0 Alpha
# www.blender.org
mtllib Door.mtl
o Plane
v -0.000000 4.000000 1.000000
v 0.000000 0.000000 1.000000
v -0.000000 4.000000 -1.000000
v 0.000000 0.000000 -1.000000
v -0.000000 4.000000 -0.777509
v 0.000000 0.000000 -0.777509
v -0.000000 4.000000 0.780425
v 0.000000 0.000000 0.780425
v -0.000000 3.803307 1.000000
v -0.000000 3.803307 -1.000000
v -0.000000 3.803307 -0.777509
v -0.000000 3.803307 0.780425
v -0.136883 -0.000000 0.780425
v -0.136883 -0.000000 -0.777509
v -0.136883 3.803307 -0.777509
v -0.136883 3.803307 0.780425
vn 1.0000 -0.0000 -0.0000
vn -0.0000 -1.0000 -0.0000
vn -0.0000 -0.0000 -1.0000
vn -0.0000 -0.0000 1.0000
vt 0.900381 0.950737
vt 0.900381 0.000100
vt 0.999900 0.000100
vt 0.999900 0.950737
vt 0.075553 0.959955
vt 0.920552 0.959955
vt 0.920552 0.997076
vt 0.075553 0.997076
vt 0.000100 0.950737
vt 0.000100 0.000100
vt 0.109865 0.000100
vt 0.109865 0.950737
vt 0.000100 0.999900
vt 0.109865 0.999900
vt 0.888677 0.950737
vt 0.888677 0.999900
vt 0.999900 0.999900
vt 0.888677 0.000100
vt 0.010909 0.941696
vt 0.010910 0.027054
vt 0.076746 0.027054
vt 0.076746 0.941696
vt 0.980337 0.011687
vt 0.980337 0.960969
vt 0.912006 0.960969
vt 0.912006 0.011687
s 0
usemtl Material.001
f 11/1/1 6/2/1 4/3/1 10/4/1
f 11/5/2 12/6/2 16/7/2 15/8/2
f 9/9/1 2/10/1 8/11/1 12/12/1
f 1/13/1 9/9/1 12/12/1 7/14/1
f 7/14/1 12/12/1 11/15/1 5/16/1
f 5/16/1 11/15/1 10/4/1 3/17/1
f 16/12/1 13/11/1 14/18/1 15/15/1
f 12/19/3 8/20/3 13/21/3 16/22/3
f 6/23/4 11/24/4 15/25/4 14/26/4
