# Blender 4.3.0 Alpha
# www.blender.org
mtllib nail.mtl
o Cube.001
v -0.024699 -0.284871 0.024699
v -0.035808 0.252512 0.035808
v -0.024699 -0.284871 -0.024699
v -0.035808 0.252512 -0.035808
v 0.024699 -0.284871 0.024699
v 0.035808 0.252512 0.035808
v 0.024699 -0.284871 -0.024699
v 0.035808 0.252512 -0.035808
v -0.073217 0.252512 0.073217
v -0.073217 0.252512 -0.073217
v 0.073217 0.252512 -0.073217
v 0.073217 0.252512 0.073217
v -0.073217 0.316402 0.073217
v -0.073217 0.316402 -0.073217
v 0.073217 0.316402 -0.073217
v 0.073217 0.316402 0.073217
vn -0.9998 -0.0207 -0.0000
vn -0.0000 -0.0207 -0.9998
vn 0.9998 -0.0207 -0.0000
vn -0.0000 -0.0207 0.9998
vn -0.0000 -1.0000 -0.0000
vn -1.0000 -0.0000 -0.0000
vn -0.0000 1.0000 -0.0000
vn -0.0000 -0.0000 1.0000
vn -0.0000 -0.0000 -1.0000
vn 1.0000 -0.0000 -0.0000
vt 0.863070 0.844117
vt 0.861761 0.875768
vt 0.857549 0.875507
vt 0.860165 0.843937
vt 0.871795 0.843937
vt 0.874411 0.875507
vt 0.870199 0.875768
vt 0.868890 0.844117
vt 0.865980 0.875855
vt 0.865980 0.844177
vt 0.877333 0.865039
vt 0.874422 0.865039
vt 0.874422 0.862128
vt 0.877333 0.862128
vt 0.881334 0.935189
vt 0.877115 0.935189
vt 0.874910 0.932984
vt 0.883539 0.932984
vt 0.851583 0.810175
vt 0.860211 0.810175
vt 0.860211 0.813940
vt 0.851583 0.813940
vt 0.877114 0.939409
vt 0.881334 0.939409
vt 0.883539 0.941613
vt 0.874910 0.941613
vt 0.881097 0.878963
vt 0.872469 0.878963
vt 0.872469 0.870335
vt 0.881097 0.870335
vt 0.868840 0.810175
vt 0.868840 0.813940
vt 0.877468 0.810175
vt 0.886097 0.810175
vt 0.886097 0.813940
vt 0.877468 0.813940
s 0
usemtl Material
f 1/1/1 2/2/1 4/3/1 3/4/1
f 3/5/2 4/6/2 8/7/2 7/8/2
f 7/8/3 8/7/3 6/9/3 5/10/3
f 5/10/4 6/9/4 2/2/4 1/1/4
f 3/11/5 7/12/5 5/13/5 1/14/5
f 6/15/5 8/16/5 11/17/5 12/18/5
f 10/19/6 9/20/6 13/21/6 14/22/6
f 4/23/5 2/24/5 9/25/5 10/26/5
f 2/24/5 6/15/5 12/18/5 9/25/5
f 8/16/5 4/23/5 10/26/5 11/17/5
f 15/27/7 14/28/7 13/29/7 16/30/7
f 9/20/8 12/31/8 16/32/8 13/21/8
f 11/33/9 10/34/9 14/35/9 15/36/9
f 12/31/10 11/33/10 15/36/10 16/32/10
