# Blender 4.3.0 Alpha
# www.blender.org
mtllib plank.mtl
o Cube
v 0.345091 -0.064929 -4.531218
v 0.345091 0.064929 -4.531218
v 0.345091 -0.064929 4.531218
v 0.345091 0.064929 4.531218
v -0.345091 -0.064929 -4.531218
v -0.345091 0.064929 -4.531218
v -0.345091 -0.064929 4.531218
v -0.345091 0.064929 4.531218
vn -0.0000 1.0000 -0.0000
vn -0.0000 -0.0000 -1.0000
vn 1.0000 -0.0000 -0.0000
vn -0.0000 -1.0000 -0.0000
vn -1.0000 -0.0000 -0.0000
vn -0.0000 -0.0000 1.0000
vt 0.657784 0.756678
vt 0.675732 0.756678
vt 0.675732 0.992346
vt 0.657784 0.992346
vt 0.625401 0.969490
vt 0.628778 0.969490
vt 0.628778 0.987439
vt 0.625401 0.987439
vt 0.667609 0.992346
vt 0.664232 0.992346
vt 0.664232 0.756678
vt 0.667609 0.756678
vt 0.658240 0.756678
vt 0.676188 0.756678
vt 0.676188 0.992346
vt 0.658240 0.992346
vt 0.667649 0.756678
vt 0.671026 0.756678
vt 0.671026 0.992346
vt 0.667649 0.992346
vt 0.628778 0.969450
vt 0.625401 0.969450
vt 0.625401 0.951502
vt 0.628778 0.951502
s 0
usemtl Material
f 1/1/1 5/2/1 7/3/1 3/4/1
f 4/5/2 3/6/2 7/7/2 8/8/2
f 8/9/3 7/10/3 5/11/3 6/12/3
f 6/13/4 2/14/4 4/15/4 8/16/4
f 2/17/5 1/18/5 3/19/5 4/20/5
f 6/21/6 5/22/6 1/23/6 2/24/6
