# Blender 4.3.0 Alpha
# www.blender.org
mtllib Stol1.mtl
o Cube
v 0.697436 0.959523 -1.443253
v 0.697436 0.959523 1.443253
v -0.697436 0.959523 -1.443253
v -0.697436 0.959523 1.443253
v 0.697436 1.040477 1.443253
v -0.697436 1.040477 1.443253
v 0.697436 1.040477 -1.443253
v -0.697436 1.040477 -1.443253
vn -0.0000 -0.0000 1.0000
vn -1.0000 -0.0000 -0.0000
vn -0.0000 -1.0000 -0.0000
vn 1.0000 -0.0000 -0.0000
vn -0.0000 -0.0000 -1.0000
vn -0.0000 1.0000 -0.0000
vt 0.684179 0.081365
vt 0.684179 0.074751
vt 0.798145 0.074751
vt 0.798145 0.081365
vt 0.920017 0.081479
vt 0.920017 0.088093
vt 0.684179 0.088093
vt 0.684179 0.081479
vt 0.630213 0.190437
vt 0.630213 0.013918
vt 0.995494 0.013918
vt 0.995494 0.190437
vt 0.684179 0.094822
vt 0.684179 0.088207
vt 0.920017 0.088207
vt 0.920017 0.094822
vt 0.912226 0.074751
vt 0.912226 0.081365
vt 0.798259 0.081365
vt 0.798259 0.074751
vt 0.994155 0.190130
vt 0.630142 0.190130
vt 0.630142 0.014225
vt 0.994155 0.014225
s 0
usemtl Material.001
f 2/1/1 5/2/1 6/3/1 4/4/1
f 4/5/2 6/6/2 8/7/2 3/8/2
f 3/9/3 1/10/3 2/11/3 4/12/3
f 1/13/4 7/14/4 5/15/4 2/16/4
f 3/17/5 8/18/5 7/19/5 1/20/5
f 5/21/6 7/22/6 8/23/6 6/24/6
o Cube.002
v -0.738921 0.001210 1.484738
v -0.738921 1.031509 1.484738
v -0.738921 0.001210 1.401768
v -0.738921 1.031509 1.401768
v -0.655952 0.001210 1.484738
v -0.655952 1.031509 1.484738
v -0.655952 0.001210 1.401768
v -0.655952 1.031509 1.401768
v 0.738921 0.001210 1.484738
v 0.738921 1.031509 1.484738
v 0.738921 0.001210 1.401768
v 0.738921 1.031509 1.401768
v 0.655952 0.001210 1.484738
v 0.655952 1.031509 1.484738
v 0.655952 0.001210 1.401768
v 0.655952 1.031509 1.401768
v -0.738921 0.001210 -1.484738
v -0.738921 1.031509 -1.484738
v -0.738921 0.001210 -1.401768
v -0.738921 1.031509 -1.401768
v -0.655952 0.001210 -1.484738
v -0.655952 1.031509 -1.484738
v -0.655952 0.001210 -1.401768
v -0.655952 1.031509 -1.401768
v 0.738921 0.001210 -1.484738
v 0.738921 1.031509 -1.484738
v 0.738921 0.001210 -1.401768
v 0.738921 1.031509 -1.401768
v 0.655952 0.001210 -1.484738
v 0.655952 1.031509 -1.484738
v 0.655952 0.001210 -1.401768
v 0.655952 1.031509 -1.401768
vn -1.0000 -0.0000 -0.0000
vn -0.0000 -0.0000 -1.0000
vn 1.0000 -0.0000 -0.0000
vn -0.0000 -0.0000 1.0000
vn -0.0000 -1.0000 -0.0000
vn -0.0000 1.0000 -0.0000
vt 0.865538 0.035121
vt 0.980733 0.035121
vt 0.980733 0.044397
vt 0.865538 0.044397
vt 0.634835 0.025687
vt 0.750029 0.025687
vt 0.750029 0.034963
vt 0.634835 0.034963
vt 0.634835 0.035121
vt 0.750029 0.035121
vt 0.750029 0.044397
vt 0.634835 0.044397
vt 0.750187 0.035121
vt 0.865381 0.035121
vt 0.865381 0.044397
vt 0.750187 0.044397
vt 0.775576 0.213190
vt 0.775576 0.225864
vt 0.762901 0.225864
vt 0.762901 0.213190
vt 0.788465 0.213190
vt 0.788465 0.225864
vt 0.775791 0.225864
vt 0.775791 0.213190
s 0
usemtl Material.001
f 9/25/7 10/26/7 12/27/7 11/28/7
f 11/29/8 12/30/8 16/31/8 15/32/8
f 15/33/9 16/34/9 14/35/9 13/36/9
f 13/37/10 14/38/10 10/39/10 9/40/10
f 11/41/11 15/42/11 13/43/11 9/44/11
f 16/45/12 12/46/12 10/47/12 14/48/12
f 17/25/9 19/28/9 20/27/9 18/26/9
f 19/29/8 23/32/8 24/31/8 20/30/8
f 23/33/7 21/36/7 22/35/7 24/34/7
f 21/37/10 17/40/10 18/39/10 22/38/10
f 19/41/11 17/44/11 21/43/11 23/42/11
f 24/45/12 22/48/12 18/47/12 20/46/12
f 25/25/7 27/28/7 28/27/7 26/26/7
f 27/29/10 31/32/10 32/31/10 28/30/10
f 31/33/9 29/36/9 30/35/9 32/34/9
f 29/37/8 25/40/8 26/39/8 30/38/8
f 27/41/11 25/44/11 29/43/11 31/42/11
f 32/45/12 30/48/12 26/47/12 28/46/12
f 33/25/9 34/26/9 36/27/9 35/28/9
f 35/29/10 36/30/10 40/31/10 39/32/10
f 39/33/7 40/34/7 38/35/7 37/36/7
f 37/37/8 38/38/8 34/39/8 33/40/8
f 35/41/11 39/42/11 37/43/11 33/44/11
f 40/45/12 36/46/12 34/47/12 38/48/12
